<?xml version="1.0" encoding="UTF-8" standalone="no"?>
<!-- Created with Inkscape (http://www.inkscape.org/) -->

<svg
   xmlns:dc="http://purl.org/dc/elements/1.1/"
   xmlns:cc="http://creativecommons.org/ns#"
   xmlns:rdf="http://www.w3.org/1999/02/22-rdf-syntax-ns#"
   xmlns:svg="http://www.w3.org/2000/svg"
   xmlns="http://www.w3.org/2000/svg"
   xmlns:sodipodi="http://sodipodi.sourceforge.net/DTD/sodipodi-0.dtd"
   xmlns:inkscape="http://www.inkscape.org/namespaces/inkscape"
   width="100"
   height="80.000023"
   id="svg2"
   version="1.1"
   inkscape:version="0.48.2 r9819"
   sodipodi:docname="wep.svg">
  <defs
     id="defs4" />
  <sodipodi:namedview
     id="base"
     pagecolor="#ffffff"
     bordercolor="#666666"
     borderopacity="1.0"
     inkscape:pageopacity="0.0"
     inkscape:pageshadow="2"
     inkscape:zoom="1"
     inkscape:cx="22.652311"
     inkscape:cy="54.192399"
     inkscape:document-units="px"
     inkscape:current-layer="layer2"
     showgrid="false"
     inkscape:window-width="1680"
     inkscape:window-height="995"
     inkscape:window-x="-1"
     inkscape:window-y="-15"
     inkscape:window-maximized="1"
     showguides="true"
     inkscape:guide-bbox="true"
     fit-margin-top="0"
     fit-margin-left="0"
     fit-margin-right="0"
     fit-margin-bottom="0" />
  <metadata
     id="metadata7">
    <rdf:RDF>
      <cc:Work
         rdf:about="">
        <dc:format>image/svg+xml</dc:format>
        <dc:type
           rdf:resource="http://purl.org/dc/dcmitype/StillImage" />
        <dc:title></dc:title>
      </cc:Work>
    </rdf:RDF>
  </metadata>
  <g
     inkscape:groupmode="layer"
     id="layer2"
     inkscape:label="Calque1"
     style="display:inline"
     transform="translate(-314.33705,-342.64064)">
    <path
       style="fill:#000000;fill-opacity:1;stroke:none"
       d="m 340.66499,342.64064 c -4.5049,3.22427 -3.18657,9.25908 -5.16513,13.90569 -0.80512,0.77802 -5.72046,0.1482 -7.41463,0.52834 -0.83862,0.026 -1.2847,1.17162 -2.17306,1.16232 -1.99771,0.26089 -10.87998,-0.62315 -11.57512,0.0423 1.33727,7.65605 13.29697,5.89349 19.3501,7.5023 3.06609,6.02626 2.60118,12.62229 5.55825,17.43495 0.74498,3.67723 -0.14444,21.2961 -1.35407,30.03036 -0.58719,1.67069 -0.76408,3.53216 -2.44607,3.52925 -0.79755,-0.11838 -2.2453,-0.39991 -2.9047,-0.45435 -1.13924,0.53278 -1.51581,2.6753 -1.35407,3.49755 0.7784,0.005 7.82725,0.005 8.56122,0 0.85831,-1.84289 0.4083,-2.7902 1.15751,-4.50139 0.30404,-1.21684 2.07253,-0.6456 2.59896,-1.2046 0.14789,-9.8607 2.55285,-26.09745 2.97022,-30.69606 13.90704,6.53721 32.58373,-8.37074 38.68929,0.0423 4.30296,11.30524 -1.79219,13.965 14.30512,27.56834 0.71764,1.17428 0.47484,3.41928 0.49139,5.56862 -2.3663,-0.42408 -3.2194,1.4072 -3.33058,3.22281 l 7.90603,0 c 0.1776,-1.81048 0.0375,-2.33227 -0.28392,-3.09602 -0.24933,-0.72322 0.15154,-2.46111 -0.0437,-4.46968 -7.91555,-7.79685 -1.37294,-15.39563 -10.99636,-29.13221 10.6541,14.66522 7.98176,30.78686 20.37658,39.5192 4.43461,-10.1809 -11.36566,-47.46214 -33.17474,-50.30772 -10.33371,-0.37911 -21.15979,5.54806 -29.58208,0.46492 -4.08195,-1.84586 -3.05398,-11.33707 -9.23827,-12.85959 8.00305,0.68772 0.57715,-10.55607 -0.92819,-17.29757 z m -12.03376,16.72698 c 1.07878,0.45289 1.2193,0.36075 3.21046,0.2536 -2.81258,1.52957 -3.53611,1.41828 -5.71112,0.951 0.83577,-1.18745 1.76017,-1.13373 2.50066,-1.2046 z"
       id="path3819"
       inkscape:connector-curvature="0" />
  </g>
</svg>
