<?xml version="1.0" encoding="UTF-8" standalone="no"?>
<!-- Created with Inkscape (http://www.inkscape.org/) -->

<svg
   xmlns:dc="http://purl.org/dc/elements/1.1/"
   xmlns:cc="http://creativecommons.org/ns#"
   xmlns:rdf="http://www.w3.org/1999/02/22-rdf-syntax-ns#"
   xmlns:svg="http://www.w3.org/2000/svg"
   xmlns="http://www.w3.org/2000/svg"
   xmlns:sodipodi="http://sodipodi.sourceforge.net/DTD/sodipodi-0.dtd"
   xmlns:inkscape="http://www.inkscape.org/namespaces/inkscape"
   width="56.424473"
   height="79.875473"
   id="svg2983"
   version="1.1"
   inkscape:version="0.48.2 r9819"
   sodipodi:docname="anuket.svg">
  <defs
     id="defs2985" />
  <sodipodi:namedview
     id="base"
     pagecolor="#ffffff"
     bordercolor="#666666"
     borderopacity="1.0"
     inkscape:pageopacity="0.0"
     inkscape:pageshadow="2"
     inkscape:zoom="1.979899"
     inkscape:cx="156.6269"
     inkscape:cy="-52.714291"
     inkscape:document-units="px"
     inkscape:current-layer="layer1"
     showgrid="false"
     inkscape:window-width="1280"
     inkscape:window-height="969"
     inkscape:window-x="-1"
     inkscape:window-y="-15"
     inkscape:window-maximized="1"
     showguides="true"
     inkscape:guide-bbox="true"
     fit-margin-top="0"
     fit-margin-left="0"
     fit-margin-right="0"
     fit-margin-bottom="0" />
  <metadata
     id="metadata2988">
    <rdf:RDF>
      <cc:Work
         rdf:about="">
        <dc:format>image/svg+xml</dc:format>
        <dc:type
           rdf:resource="http://purl.org/dc/dcmitype/StillImage" />
        <dc:title></dc:title>
      </cc:Work>
    </rdf:RDF>
  </metadata>
  <g
     inkscape:label="Calque 1"
     inkscape:groupmode="layer"
     id="layer1"
     transform="translate(-148.06929,-191.99976)">
    <g
       id="g3997"
       transform="matrix(0.99999941,0,0,1.0000059,1.0349812e-4,-0.00137191)">
      <path
         sodipodi:nodetypes="cccccccccccccccccccccccccccc"
         inkscape:connector-curvature="0"
         id="path3125"
         d="m 203.28538,271.62944 c -1.16698,-5.78463 -3.44343,-7.78033 -4.1424,-12.37489 -0.26597,-5.6841 -0.91787,-8.33844 -3.36758,-9.18604 -3.84718,-1.01501 -8.76839,1.09631 -10.78046,-0.72677 -2.18143,-2.35526 -3.18577,-4.68504 -0.68274,-7.21927 1.39871,-1.35249 2.2277,-0.66379 4.05378,-1.38087 1.00864,-1.06026 0.18615,-2.96416 1.2533,-3.66604 1.70793,-0.72408 0.089,-1.81467 -0.36115,-2.93887 -0.48383,-0.95979 -0.18687,-2.32461 -0.0466,-4.13415 0.86393,-7.08637 2.05968,-12.3924 3.48419,-18.14814 1.8775,-5.74495 2.40961,-11.67174 10.95309,-13.87126 1.24358,-0.74983 0.39912,-2.31206 -0.9715,-2.4445 -8.0834,-2.837 -15.76442,-3.2473 -23.58691,-3.30917 -14.00805,0.40885 -22.76088,3.35458 -26.84129,6.77083 -1.24475,1.00308 -0.35187,1.95068 1.29439,2.02156 2.88503,0.4012 7.29629,7.50109 8.76235,10.67617 1.68904,4.28626 4.30389,11.33187 5.4366,15.80826 1.35363,6.16087 4.71627,9.55725 6.15833,13.90602 0.49722,2.45802 -2.64298,5.64021 -4.28916,6.35476 -1.54319,0.6423 -5.53608,0.39403 -9.11579,0.74599 -3.68491,0.58379 -5.88087,2.88362 -6.76026,5.48437 -0.34916,1.68439 -0.30706,3.03753 0.39253,5.02996 1.24937,3.06144 4.12089,6.56238 5.55096,12.60205 l 24.8314,0 c 3.37568,-3.10259 4.25852,-3.46648 4.23951,-9.21922 0.14065,-3.34879 3.30596,-2.96588 3.87612,-0.9556 1.10598,3.30884 1.69375,6.29294 3.27048,10.17482 z"
         style="fill:#000000;fill-opacity:1;stroke:#000000;stroke-width:0.47964552;stroke-linecap:butt;stroke-linejoin:miter;stroke-miterlimit:4;stroke-opacity:1;stroke-dasharray:none" />
      <path
         sodipodi:nodetypes="cccc"
         inkscape:connector-curvature="0"
         id="path3945"
         d="m 148.41405,261.944 c 1.81231,-3.33196 2.03152,-5.06253 3.05312,-9.13789 1.77056,-5.86342 2.92818,-8.34099 8.49908,-13.86064 4.7694,-4.40064 6.252,-7.82587 7.22276,-13.58236"
         style="fill:none;stroke:#000000;stroke-width:0.7194683;stroke-linecap:round;stroke-linejoin:miter;stroke-miterlimit:4;stroke-opacity:1;stroke-dasharray:none" />
      <path
         sodipodi:nodetypes="ccc"
         inkscape:connector-curvature="0"
         id="path3948"
         d="m 167.31014,226.81179 c -1.2344,11.20122 -7.92466,16.79398 -10.73589,21.22339 -3.48322,4.46202 -4.48693,11.51673 -7.3123,14.99411"
         style="fill:none;stroke:#000000;stroke-width:0.7194683;stroke-linecap:round;stroke-linejoin:miter;stroke-miterlimit:4;stroke-opacity:1;stroke-dasharray:none" />
      <path
         sodipodi:nodetypes="cc"
         inkscape:connector-curvature="0"
         id="path3921"
         d="m 167.43126,227.05405 c 8.4843,-1.95652 15.14818,-2.00543 22.74044,-0.60566"
         style="fill:none;stroke:#ffffff;stroke-width:0.7194683;stroke-linecap:butt;stroke-linejoin:miter;stroke-miterlimit:4;stroke-opacity:1;stroke-dasharray:none" />
      <path
         sodipodi:nodetypes="cc"
         inkscape:connector-curvature="0"
         id="path3921-3"
         d="m 166.64644,224.93368 c 8.75805,-1.95651 16.02177,-2.00542 23.85899,-0.60565"
         style="fill:none;stroke:#ffffff;stroke-width:0.7194683;stroke-linecap:butt;stroke-linejoin:miter;stroke-miterlimit:4;stroke-opacity:1;stroke-dasharray:none" />
      <path
         sodipodi:nodetypes="cc"
         inkscape:connector-curvature="0"
         id="path3909"
         d="m 168.88481,247.52968 c 1.7293,6.27723 13.36229,7.03679 16.44323,1.30213"
         style="fill:none;stroke:#ffffff;stroke-width:0.7194683;stroke-linecap:butt;stroke-linejoin:miter;stroke-miterlimit:4;stroke-opacity:1;stroke-dasharray:none;display:inline" />
      <path
         sodipodi:nodetypes="cc"
         inkscape:connector-curvature="0"
         id="path3912"
         d="m 164.52417,247.89307 c 5.58349,10.96072 18.17499,12.65006 25.67931,1.45354"
         style="fill:none;stroke:#ffffff;stroke-width:0.7194683;stroke-linecap:butt;stroke-linejoin:miter;stroke-miterlimit:4;stroke-opacity:1;stroke-dasharray:none;display:inline" />
      <path
         sodipodi:nodetypes="cc"
         inkscape:connector-curvature="0"
         id="path3915"
         d="m 161.52624,247.95363 c 10.47859,18.47369 27.32748,11.20338 31.22094,1.39298"
         style="fill:none;stroke:#ffffff;stroke-width:0.7194683;stroke-linecap:butt;stroke-linejoin:miter;stroke-miterlimit:4;stroke-opacity:1;stroke-dasharray:none;display:inline" />
      <path
         sodipodi:nodetypes="cc"
         inkscape:connector-curvature="0"
         id="path3899"
         d="m 162.34386,259.63769 c 2.37496,3.98103 3.98633,7.96446 5.45079,11.99175"
         style="fill:none;stroke:#000000;stroke-width:0.7194683;stroke-linecap:butt;stroke-linejoin:miter;stroke-miterlimit:4;stroke-opacity:1;stroke-dasharray:none" />
      <path
         sodipodi:nodetypes="cc"
         inkscape:connector-curvature="0"
         id="path3942"
         d="m 166.94675,219.54406 c 7.77743,-2.05625 15.89119,-2.08585 22.52995,-0.48451"
         style="fill:none;stroke:#ffffff;stroke-width:1.67875934;stroke-linecap:butt;stroke-linejoin:miter;stroke-miterlimit:4;stroke-opacity:1;stroke-dasharray:none" />
      <path
         sodipodi:nodetypes="ccc"
         inkscape:connector-curvature="0"
         id="path3951"
         d="m 188.77197,231.41468 c -1.21501,-2.3422 -3.47647,-0.36665 -5.24527,-0.32791 1.82599,1.66661 5.01531,2.7317 5.24527,0.32791 z"
         style="fill:none;stroke:#ffffff;stroke-width:0.47964552;stroke-linecap:butt;stroke-linejoin:miter;stroke-miterlimit:4;stroke-opacity:1;stroke-dasharray:none" />
    </g>
  </g>
</svg>
